<mxfile host="Electron" agent="Mozilla/5.0 (Windows NT 10.0; Win64; x64) AppleWebKit/537.36 (KHTML, like Gecko) draw.io/24.7.8 Chrome/128.0.6613.36 Electron/32.0.1 Safari/537.36" version="24.7.8">
  <diagram name="第 1 页" id="VrVJlA09Cyhh8VJRDjiN">
    <mxGraphModel dx="1562" dy="909" grid="1" gridSize="10" guides="1" tooltips="1" connect="1" arrows="1" fold="1" page="1" pageScale="1" pageWidth="1169" pageHeight="827" math="0" shadow="0">
      <root>
        <mxCell id="0" />
        <mxCell id="1" parent="0" />
        <mxCell id="qImb0REnHrXNTDnbakKC-3" value="" style="group" vertex="1" connectable="0" parent="1">
          <mxGeometry x="80" y="19" width="1010" height="790" as="geometry" />
        </mxCell>
        <mxCell id="KMl4hzvXtO50HrO4CXZ4-83" value="&lt;blockquote style=&quot;margin: 0 0 0 40px; border: none; padding: 0px;&quot;&gt;&lt;div style=&quot;border-color: var(--border-color); font-size: 24px;&quot;&gt;&lt;span style=&quot;background-color: initial;&quot;&gt;&lt;font color=&quot;#ffffff&quot;&gt;课题规划流程：&lt;/font&gt;&lt;/span&gt;&lt;/div&gt;&lt;div style=&quot;border-color: var(--border-color); font-size: 24px;&quot;&gt;&lt;span style=&quot;background-color: initial;&quot;&gt;&lt;font color=&quot;#ffffff&quot;&gt;&lt;br&gt;&lt;/font&gt;&lt;/span&gt;&lt;/div&gt;&lt;/blockquote&gt;&lt;blockquote style=&quot;margin: 0 0 0 40px; border: none; padding: 0px;&quot;&gt;&lt;blockquote style=&quot;margin: 0 0 0 40px; border: none; padding: 0px;&quot;&gt;&lt;div style=&quot;border-color: var(--border-color); font-size: 24px;&quot;&gt;&lt;span style=&quot;background-color: initial; color: rgb(255, 255, 255);&quot;&gt;1. 梳理项目技术流程&lt;/span&gt;&lt;/div&gt;&lt;/blockquote&gt;&lt;blockquote style=&quot;margin: 0 0 0 40px; border: none; padding: 0px;&quot;&gt;&lt;div style=&quot;border-color: var(--border-color); font-size: 24px;&quot;&gt;&lt;span style=&quot;color: rgb(255, 255, 255); background-color: initial;&quot;&gt;2. 针对项目技术点领域进行综述&lt;/span&gt;&lt;/div&gt;&lt;/blockquote&gt;&lt;blockquote style=&quot;margin: 0 0 0 40px; border: none; padding: 0px;&quot;&gt;&lt;div style=&quot;border-color: var(--border-color); font-size: 24px;&quot;&gt;&lt;span style=&quot;color: rgb(255, 255, 255); background-color: initial;&quot;&gt;3. 针对综述中最符合项目需求的SOTA进行精读及实验，找到问题或改进的突破口&lt;/span&gt;&lt;/div&gt;&lt;/blockquote&gt;&lt;blockquote style=&quot;margin: 0 0 0 40px; border: none; padding: 0px;&quot;&gt;&lt;div style=&quot;border-color: var(--border-color); font-size: 24px;&quot;&gt;&lt;span style=&quot;color: rgb(255, 255, 255); background-color: initial;&quot;&gt;4. 针对找到的问题或改进的突破口进行优化、创新和实验&lt;/span&gt;&lt;/div&gt;&lt;/blockquote&gt;&lt;blockquote style=&quot;margin: 0 0 0 40px; border: none; padding: 0px;&quot;&gt;&lt;div style=&quot;border-color: var(--border-color); font-size: 24px;&quot;&gt;&lt;span style=&quot;color: rgb(255, 255, 255); background-color: initial;&quot;&gt;5. 将改进后的技术点按照规划的框架组合成完整的工作流程&lt;/span&gt;&lt;/div&gt;&lt;/blockquote&gt;&lt;/blockquote&gt;" style="rounded=0;whiteSpace=wrap;html=1;strokeColor=none;fillColor=#4895C7;align=left;container=0;" parent="qImb0REnHrXNTDnbakKC-3" vertex="1">
          <mxGeometry y="560" width="1010" height="230" as="geometry" />
        </mxCell>
        <mxCell id="KMl4hzvXtO50HrO4CXZ4-82" value="" style="rounded=0;whiteSpace=wrap;html=1;strokeColor=none;fillColor=#809CBD;container=0;" parent="qImb0REnHrXNTDnbakKC-3" vertex="1">
          <mxGeometry x="760" width="250" height="560" as="geometry" />
        </mxCell>
        <mxCell id="KMl4hzvXtO50HrO4CXZ4-62" value="" style="shape=crossbar;whiteSpace=wrap;html=1;rounded=1;direction=south;strokeWidth=2;container=0;strokeColor=#C7E9F6;" parent="qImb0REnHrXNTDnbakKC-3" vertex="1">
          <mxGeometry x="760" y="10" width="20" height="71" as="geometry" />
        </mxCell>
        <mxCell id="KMl4hzvXtO50HrO4CXZ4-63" value="" style="shape=crossbar;whiteSpace=wrap;html=1;rounded=1;direction=south;strokeWidth=2;container=0;fillColor=#FFFFFF;strokeColor=#C7E9F6;" parent="qImb0REnHrXNTDnbakKC-3" vertex="1">
          <mxGeometry x="760" y="81" width="20" height="319" as="geometry" />
        </mxCell>
        <mxCell id="KMl4hzvXtO50HrO4CXZ4-64" value="" style="shape=crossbar;whiteSpace=wrap;html=1;rounded=1;direction=south;strokeWidth=2;container=0;strokeColor=#C7E9F6;" parent="qImb0REnHrXNTDnbakKC-3" vertex="1">
          <mxGeometry x="760" y="400" width="20" height="110" as="geometry" />
        </mxCell>
        <mxCell id="KMl4hzvXtO50HrO4CXZ4-65" value="" style="shape=crossbar;whiteSpace=wrap;html=1;rounded=1;direction=south;strokeWidth=2;container=0;strokeColor=#C7E9F6;" parent="qImb0REnHrXNTDnbakKC-3" vertex="1">
          <mxGeometry x="760" y="510" width="20" height="40" as="geometry" />
        </mxCell>
        <mxCell id="KMl4hzvXtO50HrO4CXZ4-68" value="&lt;font color=&quot;#000000&quot;&gt;提出概念&lt;br style=&quot;font-size: 14px;&quot;&gt;Concept&lt;/font&gt;" style="rounded=0;whiteSpace=wrap;html=1;strokeWidth=2;fontSize=14;container=0;fontColor=#E1EEFA;fillColor=#FFE6B4;strokeColor=none;" parent="qImb0REnHrXNTDnbakKC-3" vertex="1">
          <mxGeometry x="800" y="20" width="120" height="40" as="geometry" />
        </mxCell>
        <mxCell id="KMl4hzvXtO50HrO4CXZ4-69" value="制定计划&lt;br style=&quot;font-size: 14px;&quot;&gt;Plan" style="rounded=0;whiteSpace=wrap;html=1;strokeWidth=2;fontSize=14;container=0;strokeColor=none;fillColor=#FFD9A1;" parent="qImb0REnHrXNTDnbakKC-3" vertex="1">
          <mxGeometry x="800" y="212.5" width="120" height="45" as="geometry" />
        </mxCell>
        <mxCell id="qImb0REnHrXNTDnbakKC-2" value="" style="edgeStyle=orthogonalEdgeStyle;rounded=0;orthogonalLoop=1;jettySize=auto;html=1;" edge="1" parent="qImb0REnHrXNTDnbakKC-3" source="KMl4hzvXtO50HrO4CXZ4-70" target="KMl4hzvXtO50HrO4CXZ4-71">
          <mxGeometry relative="1" as="geometry" />
        </mxCell>
        <mxCell id="KMl4hzvXtO50HrO4CXZ4-70" value="&lt;font color=&quot;#000000&quot;&gt;进行开发&lt;br style=&quot;font-size: 14px;&quot;&gt;Development&lt;/font&gt;" style="rounded=0;whiteSpace=wrap;html=1;strokeWidth=2;fontSize=14;container=0;fillColor=#FFD4A9;strokeColor=none;fontColor=#FFFFFF;" parent="qImb0REnHrXNTDnbakKC-3" vertex="1">
          <mxGeometry x="800" y="435" width="120" height="40" as="geometry" />
        </mxCell>
        <mxCell id="KMl4hzvXtO50HrO4CXZ4-71" value="完成部署&lt;br style=&quot;font-size: 14px;&quot;&gt;Run" style="rounded=0;whiteSpace=wrap;html=1;strokeWidth=2;fontSize=14;container=0;strokeColor=none;fillColor=#FFCC83;" parent="qImb0REnHrXNTDnbakKC-3" vertex="1">
          <mxGeometry x="800" y="510" width="120" height="40" as="geometry" />
        </mxCell>
        <mxCell id="KMl4hzvXtO50HrO4CXZ4-72" value="&lt;font color=&quot;#000000&quot;&gt;评估指标&lt;br style=&quot;font-size: 14px;&quot;&gt;Validation&lt;/font&gt;" style="rounded=0;whiteSpace=wrap;html=1;rotation=90;strokeWidth=2;fontSize=14;container=0;fillColor=#F5B981;strokeColor=none;fontColor=#FFFFFF;" parent="qImb0REnHrXNTDnbakKC-3" vertex="1">
          <mxGeometry x="920" y="260" width="120" height="40" as="geometry" />
        </mxCell>
        <mxCell id="KMl4hzvXtO50HrO4CXZ4-73" value="" style="endArrow=classic;html=1;rounded=0;exitX=0.5;exitY=1;exitDx=0;exitDy=0;entryX=0.5;entryY=0;entryDx=0;entryDy=0;strokeWidth=2;fontSize=14;strokeColor=#C7E9F6;" parent="qImb0REnHrXNTDnbakKC-3" source="KMl4hzvXtO50HrO4CXZ4-68" target="KMl4hzvXtO50HrO4CXZ4-69" edge="1">
          <mxGeometry width="50" height="50" relative="1" as="geometry">
            <mxPoint x="920" y="100" as="sourcePoint" />
            <mxPoint x="970" y="50" as="targetPoint" />
          </mxGeometry>
        </mxCell>
        <mxCell id="KMl4hzvXtO50HrO4CXZ4-74" value="" style="endArrow=classic;html=1;rounded=0;exitX=0.5;exitY=1;exitDx=0;exitDy=0;entryX=0.5;entryY=0;entryDx=0;entryDy=0;strokeWidth=2;fontSize=14;strokeColor=#C7E9F6;" parent="qImb0REnHrXNTDnbakKC-3" source="KMl4hzvXtO50HrO4CXZ4-69" target="KMl4hzvXtO50HrO4CXZ4-70" edge="1">
          <mxGeometry width="50" height="50" relative="1" as="geometry">
            <mxPoint x="880" y="360" as="sourcePoint" />
            <mxPoint x="930" y="310" as="targetPoint" />
          </mxGeometry>
        </mxCell>
        <mxCell id="KMl4hzvXtO50HrO4CXZ4-75" value="" style="endArrow=classic;html=1;rounded=0;exitX=0.5;exitY=1;exitDx=0;exitDy=0;strokeWidth=2;fontSize=14;strokeColor=#C7E9F6;" parent="qImb0REnHrXNTDnbakKC-3" source="KMl4hzvXtO50HrO4CXZ4-70" target="KMl4hzvXtO50HrO4CXZ4-71" edge="1">
          <mxGeometry width="50" height="50" relative="1" as="geometry">
            <mxPoint x="950" y="510" as="sourcePoint" />
            <mxPoint x="1000" y="460" as="targetPoint" />
          </mxGeometry>
        </mxCell>
        <mxCell id="KMl4hzvXtO50HrO4CXZ4-77" value="" style="endArrow=classic;startArrow=classic;html=1;rounded=0;entryX=0;entryY=0.5;entryDx=0;entryDy=0;strokeWidth=2;fontSize=14;exitX=1;exitY=1;exitDx=0;exitDy=0;strokeColor=#C7E9F6;" parent="qImb0REnHrXNTDnbakKC-3" source="KMl4hzvXtO50HrO4CXZ4-68" target="KMl4hzvXtO50HrO4CXZ4-72" edge="1">
          <mxGeometry width="50" height="50" relative="1" as="geometry">
            <mxPoint x="950" y="100" as="sourcePoint" />
            <mxPoint x="1000" y="50" as="targetPoint" />
          </mxGeometry>
        </mxCell>
        <mxCell id="KMl4hzvXtO50HrO4CXZ4-79" value="" style="endArrow=classic;startArrow=classic;html=1;rounded=0;entryX=1;entryY=0.5;entryDx=0;entryDy=0;strokeWidth=2;fontSize=14;exitX=1;exitY=0;exitDx=0;exitDy=0;strokeColor=#C7E9F6;" parent="qImb0REnHrXNTDnbakKC-3" target="KMl4hzvXtO50HrO4CXZ4-72" edge="1" source="KMl4hzvXtO50HrO4CXZ4-71">
          <mxGeometry width="50" height="50" relative="1" as="geometry">
            <mxPoint x="920" y="530" as="sourcePoint" />
            <mxPoint x="1000" y="390" as="targetPoint" />
          </mxGeometry>
        </mxCell>
        <mxCell id="KMl4hzvXtO50HrO4CXZ4-80" value="" style="endArrow=classic;startArrow=classic;html=1;rounded=0;entryX=0.75;entryY=1;entryDx=0;entryDy=0;exitX=1;exitY=0;exitDx=0;exitDy=0;strokeWidth=2;fontSize=14;strokeColor=#C7E9F6;" parent="qImb0REnHrXNTDnbakKC-3" source="KMl4hzvXtO50HrO4CXZ4-70" target="KMl4hzvXtO50HrO4CXZ4-72" edge="1">
          <mxGeometry width="50" height="50" relative="1" as="geometry">
            <mxPoint x="880" y="374" as="sourcePoint" />
            <mxPoint x="930" y="324" as="targetPoint" />
          </mxGeometry>
        </mxCell>
        <mxCell id="KMl4hzvXtO50HrO4CXZ4-81" value="" style="endArrow=classic;startArrow=classic;html=1;rounded=0;entryX=0.25;entryY=1;entryDx=0;entryDy=0;exitX=1;exitY=0.5;exitDx=0;exitDy=0;strokeWidth=2;fontSize=14;strokeColor=#C7E9F6;" parent="qImb0REnHrXNTDnbakKC-3" source="KMl4hzvXtO50HrO4CXZ4-69" target="KMl4hzvXtO50HrO4CXZ4-72" edge="1">
          <mxGeometry width="50" height="50" relative="1" as="geometry">
            <mxPoint x="890" y="340" as="sourcePoint" />
            <mxPoint x="940" y="290" as="targetPoint" />
          </mxGeometry>
        </mxCell>
        <mxCell id="KMl4hzvXtO50HrO4CXZ4-24" value="" style="rounded=0;whiteSpace=wrap;html=1;strokeColor=none;fillColor=#7F9EAC;container=0;" parent="qImb0REnHrXNTDnbakKC-3" vertex="1">
          <mxGeometry width="760" height="560" as="geometry" />
        </mxCell>
        <mxCell id="KMl4hzvXtO50HrO4CXZ4-1" value="项目技术流程框架" style="rounded=0;whiteSpace=wrap;html=1;fontSize=20;fillColor=#FBB03F;strokeColor=none;fontColor=#FFFFFF;fontStyle=0;container=0;" parent="qImb0REnHrXNTDnbakKC-3" vertex="1">
          <mxGeometry x="10" y="10" width="740" height="71" as="geometry" />
        </mxCell>
        <mxCell id="KMl4hzvXtO50HrO4CXZ4-2" value="" style="rounded=0;whiteSpace=wrap;html=1;fontSize=20;fontStyle=0;strokeColor=none;fillColor=#1074BC;container=0;" parent="qImb0REnHrXNTDnbakKC-3" vertex="1">
          <mxGeometry x="10" y="111" width="220" height="340" as="geometry" />
        </mxCell>
        <mxCell id="KMl4hzvXtO50HrO4CXZ4-7" value="项目技术流程实现" style="rounded=0;whiteSpace=wrap;html=1;fontSize=20;strokeColor=none;fillColor=#8BC63E;fontColor=#FFFFFF;fontStyle=0;container=0;" parent="qImb0REnHrXNTDnbakKC-3" vertex="1">
          <mxGeometry x="10" y="481" width="740" height="69" as="geometry" />
        </mxCell>
        <mxCell id="KMl4hzvXtO50HrO4CXZ4-8" value="" style="rounded=0;whiteSpace=wrap;html=1;fontSize=20;fontStyle=0;strokeColor=none;fillColor=#1074BC;container=0;" parent="qImb0REnHrXNTDnbakKC-3" vertex="1">
          <mxGeometry x="270" y="111" width="220" height="340" as="geometry" />
        </mxCell>
        <mxCell id="KMl4hzvXtO50HrO4CXZ4-20" value="&lt;font color=&quot;#ffffff&quot; style=&quot;font-size: 20px;&quot;&gt;项目技术点1&lt;/font&gt;" style="text;html=1;strokeColor=none;fillColor=none;align=center;verticalAlign=middle;whiteSpace=wrap;rounded=0;container=0;" parent="qImb0REnHrXNTDnbakKC-3" vertex="1">
          <mxGeometry x="60" y="131" width="120" height="30" as="geometry" />
        </mxCell>
        <mxCell id="KMl4hzvXtO50HrO4CXZ4-21" value="&lt;font color=&quot;#ffffff&quot; style=&quot;font-size: 20px;&quot;&gt;项目技术点2&lt;/font&gt;" style="text;html=1;strokeColor=none;fillColor=none;align=center;verticalAlign=middle;whiteSpace=wrap;rounded=0;container=0;" parent="qImb0REnHrXNTDnbakKC-3" vertex="1">
          <mxGeometry x="320" y="131" width="120" height="30" as="geometry" />
        </mxCell>
        <mxCell id="KMl4hzvXtO50HrO4CXZ4-12" value="" style="rounded=0;whiteSpace=wrap;html=1;fontSize=20;fontStyle=0;strokeColor=none;fillColor=#1074BC;container=0;" parent="qImb0REnHrXNTDnbakKC-3" vertex="1">
          <mxGeometry x="530" y="111" width="220" height="340" as="geometry" />
        </mxCell>
        <mxCell id="KMl4hzvXtO50HrO4CXZ4-3" value="领域综述" style="rounded=0;whiteSpace=wrap;html=1;fontSize=20;fontStyle=0;strokeColor=none;fillColor=#019AF6;fontColor=#FFFFFF;container=0;" parent="qImb0REnHrXNTDnbakKC-3" vertex="1">
          <mxGeometry x="30" y="170" width="700" height="60" as="geometry" />
        </mxCell>
        <mxCell id="KMl4hzvXtO50HrO4CXZ4-4" value="详解SOTA" style="rounded=0;whiteSpace=wrap;html=1;fontSize=20;fontStyle=0;fillColor=#0024C4;strokeColor=none;fontColor=#FFFFFF;container=0;" parent="qImb0REnHrXNTDnbakKC-3" vertex="1">
          <mxGeometry x="30" y="270" width="700" height="60" as="geometry" />
        </mxCell>
        <mxCell id="KMl4hzvXtO50HrO4CXZ4-22" value="&lt;font color=&quot;#ffffff&quot; style=&quot;font-size: 20px;&quot;&gt;项目技术点N&lt;/font&gt;" style="text;html=1;strokeColor=none;fillColor=none;align=center;verticalAlign=middle;whiteSpace=wrap;rounded=0;container=0;" parent="qImb0REnHrXNTDnbakKC-3" vertex="1">
          <mxGeometry x="580" y="131" width="120" height="30" as="geometry" />
        </mxCell>
        <mxCell id="KMl4hzvXtO50HrO4CXZ4-29" value="&lt;font color=&quot;#ffffff&quot; style=&quot;font-size: 24px;&quot;&gt;&lt;b style=&quot;&quot;&gt;1&lt;/b&gt;&lt;/font&gt;" style="text;html=1;strokeColor=none;fillColor=none;align=center;verticalAlign=middle;whiteSpace=wrap;rounded=0;container=0;" parent="qImb0REnHrXNTDnbakKC-3" vertex="1">
          <mxGeometry x="10" y="10" width="30" height="30" as="geometry" />
        </mxCell>
        <mxCell id="KMl4hzvXtO50HrO4CXZ4-30" value="&lt;font size=&quot;1&quot; color=&quot;#ffffff&quot; style=&quot;&quot;&gt;&lt;b style=&quot;font-size: 22px;&quot;&gt;2&lt;/b&gt;&lt;/font&gt;" style="text;html=1;strokeColor=none;fillColor=none;align=center;verticalAlign=middle;whiteSpace=wrap;rounded=0;container=0;" parent="qImb0REnHrXNTDnbakKC-3" vertex="1">
          <mxGeometry x="30" y="170" width="30" height="30" as="geometry" />
        </mxCell>
        <mxCell id="KMl4hzvXtO50HrO4CXZ4-32" value="&lt;font size=&quot;1&quot; color=&quot;#ffffff&quot; style=&quot;&quot;&gt;&lt;b style=&quot;font-size: 22px;&quot;&gt;3&lt;/b&gt;&lt;/font&gt;" style="text;html=1;strokeColor=none;fillColor=none;align=center;verticalAlign=middle;whiteSpace=wrap;rounded=0;container=0;" parent="qImb0REnHrXNTDnbakKC-3" vertex="1">
          <mxGeometry x="30" y="270" width="30" height="30" as="geometry" />
        </mxCell>
        <mxCell id="KMl4hzvXtO50HrO4CXZ4-5" value="改进SOTA" style="rounded=0;whiteSpace=wrap;html=1;fontSize=20;fontStyle=0;fillColor=#002F56;strokeColor=none;fontColor=#FFFFFF;container=0;" parent="qImb0REnHrXNTDnbakKC-3" vertex="1">
          <mxGeometry x="30" y="370" width="700" height="60" as="geometry" />
        </mxCell>
        <mxCell id="KMl4hzvXtO50HrO4CXZ4-33" value="&lt;font size=&quot;1&quot; color=&quot;#ffffff&quot; style=&quot;&quot;&gt;&lt;b style=&quot;font-size: 22px;&quot;&gt;4&lt;/b&gt;&lt;/font&gt;" style="text;html=1;strokeColor=none;fillColor=none;align=center;verticalAlign=middle;whiteSpace=wrap;rounded=0;container=0;" parent="qImb0REnHrXNTDnbakKC-3" vertex="1">
          <mxGeometry x="30" y="370" width="30" height="30" as="geometry" />
        </mxCell>
        <mxCell id="KMl4hzvXtO50HrO4CXZ4-34" value="&lt;font color=&quot;#ffffff&quot; style=&quot;font-size: 24px;&quot;&gt;&lt;b&gt;5&lt;/b&gt;&lt;/font&gt;" style="text;html=1;strokeColor=none;fillColor=none;align=center;verticalAlign=middle;whiteSpace=wrap;rounded=0;container=0;" parent="qImb0REnHrXNTDnbakKC-3" vertex="1">
          <mxGeometry x="10" y="490" width="30" height="30" as="geometry" />
        </mxCell>
      </root>
    </mxGraphModel>
  </diagram>
</mxfile>
